{"title":"Le.Dernier.Des.Fous.FRENCH.DVDRip.XviD-CRiMETiME","uid":11726851,"size":733970432,"categoryP":"video","categoryS":"movies","magnet":"?xt=urn:btih:934299cacc32142c3795f06c96846311914515e9&amp;dn=Le.Dernier.Des.Fous.FRENCH.DVDRip.XviD-CRiMETiME&amp;tr=udp%3A%2F%2Ftracker.openbittorrent.com%3A80&amp;tr=udp%3A%2F%2Fopen.demonii.com%3A1337&amp;tr=udp%3A%2F%2Ftracker.coppersurfer.tk%3A6969&amp;tr=udp%3A%2F%2Fexodus.desync.com%3A6969","seeders":1,"leechers":1,"uploader":"noriegaRJ","files":1,"time":1425101050,"description":"Title: Le Dernier des Fous aka Demented\n\n\nIMDB Link:                                      &lt;a href=&quot;\nhttp://www.imdb.com/title/tt0498103/&quot; rel=&quot;nofollow&quot; target=&quot;_NEW&quot;&gt;\nhttp://www.imdb.com/title/tt0498103/&lt;/a&gt;\n\n\nPlot: A boy is forced to witness the slow and painful collapse of his family in this drama from France. Martin (Julien Cochelin) is an eleven-year-old boy who lives with his family in a rural community. Their large, shabby house has seen better days, but household repair is the least of the family's problems. Martin's mother Nadege (Dominique Reymond) is emotionally unstable and has begun to retreat into a world of her own, and her husband Jean (Jean-Yves Chatelais) has all but given up on trying to communicate with her. Rose (Annie Cordy), Jean's mother, has moved in with the intention of helping out while Nadege recovers, but it's clear she has little regard for her daughter-in-law and avoids interacting with her grandson. Didier (Pascal Cervo), Martin's older brother, helps look after the boy, as does Malika (Fettouma Bouamari), a Middle Eastern immigrant who helps keep house. However, Didier suffers a falling out with his parents when they discover he's fallen in love with a neighbor boy, and Didier is devastated to learn his new boyfriend has announced his upcoming marriage to a girl. Le Dernier des Fous (aka Demented) was adapted from the novel {-The Last of the Crazy People} by Timothy Findley.\n\n\n\nGeneral\nComplete name                            : Le.Dernier.Des.Fous.FRENCH.DVDRip.XviD-CRiMETiME.avi\nFormat                                   : AVI\nFormat/Info                              : Audio Video Interleave\nFile size                                : 700 MiB\nDuration                                 : 1h 34mn\nOverall bit rate mode                    : Variable\nOverall bit rate                         : 1 039 Kbps\nWriting application                      : VirtualDubMod 1.5.10.1 Fr | www.trad-fr.com ||  (build 2439/release)\nWriting library                          : VirtualDubMod build 2439/release\n\nVideo\nID                                       : 0\nFormat                                   : MPEG-4 Visual\nFormat profile                           : Advanced Simple@L5\nFormat settings, BVOP                    : 2\nFormat settings, QPel                    : No\nFormat settings, GMC                     : No warppoints\nFormat settings, Matrix                  : Default (H.263)\nCodec ID                                 : XVID\nCodec ID/Hint                            : XviD\nDuration                                 : 1h 34mn\nSource duration                          : 1h 17mn\nBit rate                                 : 875 Kbps\nWidth                                    : 608 pixels\nHeight                                   : 320 pixels\nDisplay aspect ratio                     : 1.900\nFrame rate                               : 25.000 fps\nColor space                              : YUV\nChroma subsampling                       : 4:2:0\nBit depth                                : 8 bits\nScan type                                : Progressive\nCompression mode                         : Lossy\nBits/(Pixel*Frame)                       : 0.180\nStream size                              : 487 MiB (70%)\nWriting library                          : XviD 1.1.2 (UTC 2006-11-01)\n\nAudio\nID                                       : 1\nFormat                                   : MPEG Audio\nFormat version                           : Version 1\nFormat profile                           : Layer 3\nMode                                     : Joint stereo\nMode extension                           : MS Stereo\nCodec ID                                 : 55\nCodec ID/Hint                            : MP3\nDuration                                 : 1h 34mn\nSource duration                          : 1h 17mn\nBit rate mode                            : Variable\nBit rate                                 : 128 Kbps\nChannel count                            : 2 channels\nSampling rate                            : 48.0 KHz\nCompression mode                         : Lossy\nStream size                              : 71.7 MiB (10%)\nAlignment                                : Aligned on interleaves\nInterleave, duration                     : 24 ms (0.60 video frame)\nInterleave, preload duration             : 458 ms\nWriting library                          : LAME3.90.\nEncoding settings                        : -m j -V 4 -q 2 -lowpass 17.6 --abr 128\n\n\n\nThanks to those helping me seed. Leechers remember, the community depends on you. If nobody shares, the freebies go away. Remember, the only reason you can download this free movie is because others are generous enough to keep sharing it with you. If nobody shares, everybody loses, so even if its for an extra hour or two after you get it, remember, others want to see it too, and they can't without you.\n\n\nSEE MY OTHERS UPLOADS:                                                              &lt;a href=&quot;\nhttp://thepiratebay.se/user/noriegaRJ&quot; rel=&quot;nofollow&quot; target=&quot;_NEW&quot;&gt;\nhttp://thepiratebay.se/user/noriegaRJ&lt;/a&gt;\n\nAND SEE THIS ANOTHERS UPLOADS FROM &quot;HORiZON-ArtSubs&quot;:              &lt;a href=&quot;\nhttp://thepiratebay.se/user/artsubs&quot; rel=&quot;nofollow&quot; target=&quot;_NEW&quot;&gt;\nhttp://thepiratebay.se/user/artsubs&lt;/a&gt;              &lt;a href=&quot;\nhttp://thepiratebay.se/user/lletaif&quot; rel=&quot;nofollow&quot; target=&quot;_NEW&quot;&gt;\nhttp://thepiratebay.se/user/lletaif&lt;/a&gt;","torrent":{"xt":"urn:btih:934299cacc32142c3795f06c96846311914515e9","amp;dn":"Le.Dernier.Des.Fous.FRENCH.DVDRip.XviD-CRiMETiME","amp;tr":["udp%3A%2F%2Ftracker.openbittorrent.com%3A80","udp%3A%2F%2Fopen.demonii.com%3A1337","udp%3A%2F%2Ftracker.coppersurfer.tk%3A6969","udp%3A%2F%2Fexodus.desync.com%3A6969"],"infoHash":"934299cacc32142c3795f06c96846311914515e9","infoHashBuffer":{"type":"Buffer","data":[147,66,153,202,204,50,20,44,55,149,240,108,150,132,99,17,145,69,21,233]},"announce":[],"urlList":[]}}